<svg xmlns="http://www.w3.org/2000/svg" width="39" height="22" viewBox="0 0 39 22" fill="none">
  <rect width="7.37565" height="21.1131" rx="3.68783" transform="matrix(0.707107 0.707107 -0.707107 0.707107 27 0)" fill="currentColor"/>
  <rect width="7.37565" height="21.1131" rx="3.68783" transform="matrix(0.707107 0.707107 -0.707107 0.707107 27.0004 0)" fill="url(#paint0_linear_1041_5978)" fill-opacity="0.4"/>
  <rect width="7.37565" height="21.1131" rx="3.68783" transform="matrix(-0.707107 0.707107 0.707107 0.707107 10 0)" fill="currentColor"/>
  <rect width="7.37565" height="21.1131" rx="3.68783" transform="matrix(-0.707107 0.707107 0.707107 0.707107 10.0004 0)" fill="url(#paint1_linear_1041_5978)" fill-opacity="0.4"/>
  <rect width="7.37565" height="21.1131" rx="3.68783" transform="matrix(0.707107 0.707107 -0.707107 0.707107 27.0004 0)" fill="url(#paint0_linear_1041_5978)" fill-opacity="0.4"/>
  <rect width="7.37565" height="21.1131" rx="3.68783" transform="matrix(-0.707107 0.707107 0.707107 0.707107 10 0)" fill="currentColor"/>
  <rect width="7.37565" height="21.1131" rx="3.68783" transform="matrix(-0.707107 0.707107 0.707107 0.707107 10.0004 0)" fill="url(#paint1_linear_1041_5978)" fill-opacity="0.4"/>
  
  <defs>
    <linearGradient id="paint0_linear_1041_5978" x1="3.68783" y1="0" x2="3.68783" y2="21.1131" gradientUnits="userSpaceOnUse">
      <stop/>
      <stop offset="1" stop-opacity="0"/>
    </linearGradient>
    <linearGradient id="paint1_linear_1041_5978" x1="3.68783" y1="0" x2="3.68783" y2="21.1131" gradientUnits="userSpaceOnUse">
      <stop/>
      <stop offset="1" stop-opacity="0"/>
    </linearGradient>
  </defs>
</svg>
